<?xml version="1.0" encoding="UTF-8"?>
<svg xmlns="http://www.w3.org/2000/svg" xmlns:xlink="http://www.w3.org/1999/xlink" width="20pt" height="20pt" viewBox="0 0 20 20" version="1.1">
<g id="surface1">
<path style=" stroke:none;fill-rule:nonzero;fill:rgb(0%,0%,0%);fill-opacity:1;" d="M 19.359375 16.265625 L 14.121094 11.027344 C 14.695312 9.953125 15 8.75 15 7.5 C 15 5.527344 14.238281 3.664062 12.859375 2.253906 C 11.480469 0.847656 9.636719 0.046875 7.671875 0.00390625 C 7.613281 0 7.558594 0 7.5 0 C 3.363281 0 0 3.363281 0 7.5 C 0 11.636719 3.363281 15 7.5 15 C 7.558594 15 7.613281 15 7.671875 14.996094 C 8.859375 14.972656 10.003906 14.667969 11.027344 14.121094 L 16.265625 19.359375 C 16.679688 19.773438 17.226562 20 17.8125 20 C 18.398438 20 18.945312 19.773438 19.359375 19.359375 C 19.773438 18.945312 20 18.398438 20 17.8125 C 20 17.226562 19.773438 16.679688 19.359375 16.265625 Z M 7.644531 13.75 C 7.597656 13.75 7.546875 13.75 7.5 13.75 C 4.054688 13.75 1.25 10.945312 1.25 7.5 C 1.25 4.054688 4.054688 1.25 7.5 1.25 C 7.546875 1.25 7.59375 1.25 7.644531 1.25 C 11.011719 1.328125 13.75 4.128906 13.75 7.5 C 13.75 10.871094 11.011719 13.671875 7.644531 13.75 Z M 18.476562 18.476562 C 18.296875 18.652344 18.0625 18.75 17.8125 18.75 C 17.5625 18.75 17.328125 18.652344 17.148438 18.476562 L 12.097656 13.425781 C 12.367188 13.21875 12.621094 12.992188 12.859375 12.746094 C 13.0625 12.539062 13.25 12.324219 13.425781 12.097656 L 18.476562 17.148438 C 18.652344 17.328125 18.75 17.5625 18.75 17.8125 C 18.75 18.0625 18.652344 18.296875 18.476562 18.476562 Z M 18.476562 18.476562 "/>
<path style=" stroke:none;fill-rule:nonzero;fill:rgb(0%,0%,0%);fill-opacity:1;" d="M 7.5 2.5 C 4.742188 2.5 2.5 4.742188 2.5 7.5 C 2.5 10.257812 4.742188 12.5 7.5 12.5 C 10.257812 12.5 12.5 10.257812 12.5 7.5 C 12.5 4.742188 10.257812 2.5 7.5 2.5 Z M 7.5 11.25 C 5.433594 11.25 3.75 9.566406 3.75 7.5 C 3.75 5.433594 5.433594 3.75 7.5 3.75 C 9.566406 3.75 11.25 5.433594 11.25 7.5 C 11.25 9.566406 9.566406 11.25 7.5 11.25 Z M 7.5 11.25 "/>
</g>
</svg>
