<svg height="496pt" viewBox="0 0 496 496" width="496pt" xmlns="http://www.w3.org/2000/svg"><path d="m416 304h-336v-304h336zm0 0" fill="#f0bc5e"/><path d="m480 320v-232c0-22.054688-17.945312-40-40-40h-24v16h24c13.230469 0 24 10.769531 24 24v232h-16v-224c0-8.824219-7.175781-16-16-16h-16v16h16v224h-368v-224h16v-16h-16c-8.824219 0-16 7.175781-16 16v224h-16v-232c0-13.230469 10.769531-24 24-24h24v-16h-24c-22.054688 0-40 17.945312-40 40v232h-16v136c0 22.054688 17.945312 40 40 40h416c22.054688 0 40-17.945312 40-40v-136zm0 16v80h-16v-64h-432v64h-16v-80zm-32 48h-16v-16h16zm-32 0h-16v-16h16zm-32 0h-16v-16h16zm-32 0h-16v-16h16zm-32 0h-16v-16h16zm-48 32v-16h16v16zm-96 0v-16h16v16zm32-16h16v16h-16zm32 0h16v16h-16zm64 0h16v16h-16zm-16-16h-16v-16h16zm-32 0h-16v-16h16zm-32 0h-16v-16h16zm-32 0h-16v-16h16zm-32 0h-16v-16h16zm-32 0h-16v-16h16zm-32 0h-16v-16h16zm-32 0h-16v-16h16zm-16 16h16v16h-16zm32 0h16v16h-16zm32 0h16v16h-16zm32 0h16v16h-16zm48 32h112v8c0 4.40625-3.59375 8-8 8h-96c-4.40625 0-8-3.59375-8-8zm144-32h16v16h-16zm32 0h16v16h-16zm32 0h16v16h-16zm32 0h16v16h-16zm24 80h-416c-13.230469 0-24-10.769531-24-24v-24h160v8c0 13.230469 10.769531 24 24 24h96c13.230469 0 24-10.769531 24-24v-8h160v24c0 13.230469-10.769531 24-24 24zm0 0"/><path d="m448 448h16v16h-16zm0 0"/><path d="m416 448h16v16h-16zm0 0"/><path d="m384 448h16v16h-16zm0 0"/><path d="m112 256h16v16h-16zm0 0"/><path d="m144 256h208v16h-208zm0 0"/><path d="m368 256h16v16h-16zm0 0"/><path d="m248 240c57.34375 0 104-46.65625 104-104s-46.65625-104-104-104-104 46.65625-104 104 46.65625 104 104 104zm-50.800781-32.273438c6.976562-11.351562 10.800781-24.503906 10.800781-37.839843 0-9.863281 8.023438-17.886719 17.886719-17.886719 2.761719 0 5.519531.65625 8 1.886719 25.242187 12.617187 43.3125 35.082031 50.5625 62.105469-11.121094 5.085937-23.441407 8-36.449219 8-18.929688.007812-36.433594-6.054688-50.800781-16.265626zm138.394531-79.78125c-8.234375 5.183594-17.554688 8.054688-27.304688 8.054688-11.183593 0-20.289062-9.105469-20.289062-20.289062 0-9.6875-3.777344-18.808594-10.632812-25.65625l-12.121094-12.117188c-5.957032-5.960938-9.246094-13.898438-9.246094-22.335938 0-2.441406.351562-4.816406.886719-7.144531 41.722656 4.199219 74.890625 37.664063 78.707031 79.488281zm-129.816406-69.121093c11.46875 16.34375 13.621094 35.121093 4.46875 45.472656-9.054688 10.246094-27.292969 9.726563-44.054688-.519531 7.585938-19.183594 21.664063-35.105469 39.585938-44.953125zm-44.203125 60.886719c10.027343 5.425781 20.378906 8.144531 29.992187 8.144531 12.097656 0 23.027344-4.3125 30.679688-12.96875 13.691406-15.488281 12.714844-40.566407-1.4375-62.535157 6.320312-2.0625 12.953125-3.398437 19.808594-3.976562-.378907 2.378906-.617188 4.785156-.617188 7.226562 0 12.710938 4.953125 24.664063 13.945312 33.65625l12.117188 12.117188c3.824219 3.824219 5.9375 8.921875 5.9375 14.335938 0 20.007812 16.28125 36.289062 36.289062 36.289062 9.464844 0 18.582032-2.144531 27.085938-5.902344-2.917969 25.40625-16.703125 47.519532-36.574219 61.628906-9.121093-29.621093-29.65625-54.101562-57.753906-68.152343-4.6875-2.335938-9.925781-3.574219-15.160156-3.574219-18.6875 0-33.886719 15.199219-33.886719 33.886719 0 9.539062-2.519531 18.953125-7.128906 27.28125-15.367188-15.847657-24.871094-37.40625-24.871094-61.167969 0-5.566406.574219-11 1.574219-16.289062zm0 0"/></svg>