<svg height="496pt" viewBox="0 -12 496 496" width="496pt" xmlns="http://www.w3.org/2000/svg"><g fill="#f6bb42"><path d="m128.113281 160.054688c-.890625 0-1.808593-.152344-2.6875-.46875-4.167969-1.488282-6.335937-6.066407-4.839843-10.21875l40.015624-112.046876c1.476563-4.167968 6.054688-6.367187 10.214844-4.839843 4.167969 1.488281 6.335938 6.0625 4.839844 10.214843l-40.015625 112.046876c-1.160156 3.273437-4.242187 5.3125-7.527344 5.3125zm0 0"/><path d="m208.128906 160.054688c-3.289062 0-6.367187-2.039063-7.527344-5.3125l-40-112.046876c-1.496093-4.160156.679688-8.734374 4.839844-10.214843 4.132813-1.511719 8.734375.679687 10.214844 4.839843l40 112.046876c1.496094 4.160156-.679688 8.738281-4.839844 10.21875-.886718.316406-1.800781.46875-2.6875.46875zm0 0"/><path d="m336.3125 168.054688c-.832031 0-1.6875-.132813-2.527344-.414063-4.183594-1.394531-6.457031-5.921875-5.058594-10.121094l40.015626-120.046875c1.402343-4.183594 5.882812-6.457031 10.121093-5.058594 4.183594 1.394532 6.457031 5.921876 5.058594 10.121094l-40.019531 120.050782c-1.117188 3.351562-4.238282 5.46875-7.589844 5.46875zm0 0"/><path d="m416.328125 168.054688c-3.351563 0-6.472656-2.117188-7.585937-5.46875l-40-120.050782c-1.398438-4.191406.867187-8.726562 5.058593-10.121094 4.230469-1.398437 8.71875.867188 10.121094 5.058594l40 120.046875c1.398437 4.191407-.867187 8.726563-5.058594 10.121094-.847656.28125-1.695312.414063-2.535156.414063zm0 0"/><path d="m284 24h-24v-12c0-6.640625 5.359375-12 12-12s12 5.359375 12 12zm0 0"/><path d="m260 48h24v208.078125h-24zm0 0"/></g><path d="m260 24h128.167969c6.640625 0 12 5.359375 12 12s-5.359375 12-12 12h-232c-6.640625 0-12-5.359375-12-12s5.359375-12 12-12zm0 0" fill="#ffce54"/><path d="m200 256.078125h144c8.878906 0 16 7.128906 16 16v39.515625l-56 8.558594c0-15.839844-11.441406-28.953125-26.480469-31.511719l-93.441406-18.234375.089844-.246094c.960937-7.921875 7.671875-14.082031 15.832031-14.082031zm0 0" fill="#656d78"/><path d="m208.128906 144.054688h-80.015625c-4.425781 0-8 3.578124-8 8 0 26.472656 21.535157 48 48.007813 48s48.007812-21.527344 48.007812-48c0-4.421876-3.585937-8-8-8zm0 0" fill="#ffce54"/><path d="m416.449219 152.054688c-.023438 0-.042969.015624-.066407.015624-.015624 0-.03125-.015624-.054687-.015624h-80.015625c-.023438 0-.039062.015624-.054688.015624-.027343 0-.042968-.015624-.066406-.015624-4.421875 0-8 3.578124-8 8 0 26.539062 21.585938 48.128906 48.128906 48.128906 26.542969 0 48.128907-21.582032 48.128907-48.128906 0-4.421876-3.585938-8-8-8zm0 0" fill="#ffce54"/><path d="m80 440.144531v16c0 4.398438-3.601562 8-8 8h-64c-4.398438 0-8-3.601562-8-8v-200c0-4.402343 3.601562-8 8-8h64c4.398438 0 8 3.597657 8 8v16zm0 0" fill="#656d78"/><path d="m304 320.144531 154.558594-23.511719c1.761718-.320312 3.59375-.488281 5.441406-.488281 17.679688 0 32 14.320313 32 32 0 11.839844-6.398438 22.167969-16 27.6875l-216 116.3125-184-24v-184h72l125.519531 24.488281c15.039063 2.558594 26.480469 15.671876 26.480469 31.511719zm0 0" fill="#eac6bb"/><path d="m480 331.808594-216 116.3125-184-24v24.023437l184 24 216-116.3125c9.601562-5.519531 16-15.839843 16-27.6875 0-4.242187-.863281-8.265625-2.375-11.945312-2.6875 6.585937-7.488281 12.074219-13.625 15.609375zm0 0" fill="#d3b1a9"/><path d="m40.230469 448.144531c-4.414063 0-8.03125-3.578125-8.03125-8 0-4.425781 3.535156-8 7.953125-8h.078125c4.425781 0 8 3.574219 8 8 0 4.421875-3.574219 8-8 8zm0 0" fill="#ffce54"/><path d="m319.792969 317.742188-15.792969 2.402343c0 17.671875-14.328125 32-32 32-.902344 0-1.808594-.074219-2.695312-.144531-.015626-.007812-.023438-.015625-.039063-.015625l-100.640625-7.824219c-4.378906-.28125-8.25 2.960938-8.601562 7.359375-.335938 4.410157 2.953124 8.25 7.351562 8.59375l99.882812 7.757813v.03125c1.574219.160156 3.167969.234375 4.742188.234375 26.472656 0 48-21.527344 48-48 0-.816407-.167969-1.585938-.207031-2.394531zm0 0" fill="#d3b1a9"/></svg>