<svg id="filled_outline" height="512" viewBox="0 0 512 512" width="512" xmlns="http://www.w3.org/2000/svg" data-name="filled outline"><path d="m56 216h96v112h-96z" fill="#bdd1f2"/><path d="m56 280h96v48h-96z" fill="#b2c6eb"/><path d="m488 130.51v261.49h-296v-344a24.00619 24.00619 0 0 1 24-24h158.62012a24.17391 24.17391 0 0 1 16.27978 6.35986l89.3801 82.51026a24.09081 24.09081 0 0 1 7.72 17.63988z" fill="#f6bb00"/><path d="m152 304v-88l48-40 48 40v88z" fill="#d1e4ff"/><path d="m152 216h-96v-40h144z" fill="#548aff"/><path d="m485.57007 120h-77.57007a24.00619 24.00619 0 0 1 -24-24v-70.08008a23.74292 23.74292 0 0 1 6.8999 4.43994l89.3801 82.51026a23.86635 23.86635 0 0 1 5.29007 7.12988z" fill="#fcd453"/><path d="m315.37012 338.14014v53.85986h-291.37012v-56l40.76-25.93994a192.35393 192.35393 0 0 1 206.48 0z" fill="#00a64f"/><path d="m192 281.51v110.49h-48v-110.49a191.48222 191.48222 0 0 1 48 0z" fill="#deae7e"/><path d="m488 392v96h-464v-96h176l40.76-25.93994a192.17491 192.17491 0 0 1 135.24-27.37012 189.86813 189.86813 0 0 1 21.76 4.98 191.91979 191.91979 0 0 1 49.48 22.39014z" fill="#02c26a"/><path d="m376 338.68994v149.31006h-56v-150.49a191.5975 191.5975 0 0 1 56 1.17993z" fill="#f5c99d"/><path d="m64 448h16v16h-16z"/><path d="m112 424h16v16h-16z"/><path d="m96 328h16v16h-16z"/><path d="m48 352h16v16h-16z"/><path d="m160 440h16v16h-16z"/><path d="m224 408h16v16h-16z"/><path d="m440 440h16v16h-16z"/><path d="m272 432h16v16h-16z"/><path d="m416 392h16v16h-16z"/><path d="m80 240h16v16h-16z"/><path d="m112 240h16v16h-16z"/><path d="m176 232h16v24h-16z"/><path d="m208 232h16v24h-16z"/><path d="m485.70508 106.99512-89.38379-82.50977a31.91746 31.91746 0 0 0 -21.70508-8.48535h-158.61621a32.03667 32.03667 0 0 0 -32 32v120h-128a8.00039 8.00039 0 0 0 -8 8v135.24536l-28.29492 18.00564a7.99846 7.99846 0 0 0 -3.70508 6.749v152a8.00039 8.00039 0 0 0 8 8h464a8.00039 8.00039 0 0 0 8-8v-357.49219a32.08375 32.08375 0 0 0 -10.29492-23.51269zm-285.70508-58.99512a16.01833 16.01833 0 0 1 16-16h158.61621c.46436 0 .92529.0249 1.38379.06445v63.93555a32.03667 32.03667 0 0 0 32 32h40v-16h-40a16.01833 16.01833 0 0 1 -16-16v-53.72876l82.85254 76.48076a16.03979 16.03979 0 0 1 5.14746 11.75581v246.91919l-28.46-18.11059a200.28812 200.28812 0 0 0 -134.3728-29.51026l-41.6272-26.48974a200.92689 200.92689 0 0 0 -19.54-10.94922v-76.36719a7.99862 7.99862 0 0 0 -2.87891-6.14551l-48-40a7.98312 7.98312 0 0 0 -5.12109-1.85449zm40 171.74707v65.63477a200.021 200.021 0 0 0 -72-13.38184q-4.00818 0-8 .16455v-52.41748l40-33.333zm-96 52.25293h-80v-48h80zm-54.45361 16a200.56113 200.56113 0 0 0 -25.54639 13.11987v-13.11987zm78.45361 0q8.038 0 16 .69531v95.30469h-32v-95.30469q7.95556-.69031 16-.69531zm32 2.79419a184.02961 184.02961 0 0 1 66.9502 26.02026l27.38964 17.42969a200.13408 200.13408 0 0 0 -57.87984 25.07227l-36.46 23.20092zm144 53.20581a184.76423 184.76423 0 0 1 24 1.56958v134.43042h-40v-135.30469q7.95557-.69031 16-.69531zm-280-160h113.9043l-28.8 24h-85.1043zm5.0498 132.81445a184.02367 184.02367 0 0 1 66.9502-26.02026v93.20581h-104v-43.6084zm-37.0498 83.18555h168a7.99418 7.99418 0 0 0 4.29492-1.251l40.75488-25.93457a184.02367 184.02367 0 0 1 66.9502-26.02024v133.20581h-280zm448 80h-96v-131.61182a184.08886 184.08886 0 0 1 58.9502 24.42627l37.0498 23.57715z"/><path d="m408 192h40v16h-40z"/><path d="m320 192h72v16h-72z"/><path d="m272 192h32v16h-32z"/><path d="m344 240h104v16h-104z"/><path d="m272 240h56v16h-56z"/><path d="m376 288h72v16h-72z"/><path d="m304 288h56v16h-56z"/><path d="m232 64h16v16h-16z"/><path d="m264 64h80v16h-80z"/><path d="m232 104h64v16h-64z"/><path d="m312 104h32v16h-32z"/></svg>