<svg id="Layer_5" enable-background="new 0 0 64 64" height="512" viewBox="0 0 64 64" width="512" xmlns="http://www.w3.org/2000/svg"><g><g><path d="m39.791 26.062c.082-.177.165-.357.244-.502.071-.13.15-.253.237-.369l.728-1.064 7.604-.066c1.368.28 2.396 1.489 2.396 2.939v3c1.105 0 2 .895 2 2v.172c0 .53-.211 1.039-.586 1.414l-.828.828c-.375.375-.586.884-.586 1.414v6.4l2.971-2.121c3.149-2.249 5.029-5.903 5.029-9.773 0-2.371-.693-4.668-2.005-6.645-.165-4.819-4.137-8.689-8.995-8.689h-5c-3.309 0-6 2.692-6 6 0 2.128 1.116 3.996 2.791 5.062z" fill="#f0bc5e"/></g><g><path d="m7 42h14v9h-14z" fill="#f0bc5e"/></g><g><path d="m62.289 47.343c-1.025-2.052-2.999-3.428-5.278-3.681l-5.011-.557v-7.276c0-.267.104-.519.293-.708l.828-.828c.567-.566.879-1.32.879-2.122v-.171c0-1.304-.836-2.416-2-2.829v-2.171c0-1.893-1.344-3.541-3.195-3.919l-.104-.021-8.231.071-.995 1.456c-.118.156-.225.322-.318.495-.896 1.647-2.157 5.502-2.157 8.918v.721l3 1v.867c0 1.178.459 2.286 1.293 3.12.817.818 1.899 1.275 3.052 1.292l-.234 2h-5.76l-3.588-2.871c-.551-.441-.93-1.064-1.068-1.754l-1.418-7.09c1.758-2.393 2.723-5.294 2.723-8.285 0-7.72-6.28-14-14-14s-14 6.28-14 14 6.28 14 14 14c1.304 0 2.588-.189 3.831-.542l.473 2.679c.496 2.82 1.938 5.434 4.057 7.36l7.152 6.503h-31.513v-46h46v8.525c.711.253 1.384.585 2 .999v-9.524c1.103 0 2-.897 2-2v-2c0-1.103-.897-2-2-2h-50c-1.103 0-2 .897-2 2v2c0 1.103.897 2 2 2v48h34v8h26v-12.646c0-1.041-.246-2.083-.711-3.011zm-59.289-44.343h50l.001 2h-50.001zm48.367 42.047.286.032-.417 3.098-1.714-1.286zm-8.66-6.754c-.456-.456-.707-1.062-.707-1.706v-2.308l-2.979-.993c.157-2.75 1.155-5.893 1.895-7.252.046-.085.098-.165.183-.279l.433-.632 6.967-.061c.874.223 1.501 1.023 1.501 1.938v4h1c.552 0 1 .449 1 1v.171c0 .267-.104.519-.293.708l-.828.828c-.566.566-.879 1.32-.879 2.122v7.757l-2 2-1.95-1.95.308-2.636h1.642v-2h-3.586s0 0-.001 0c-.644 0-1.25-.25-1.706-.707zm1.879 6.707 1.892 1.892-1.712 1.284-.424-3.176zm-19.545-18.856c-.027-.154-.041-.31-.041-.466v-.772c0-.509.198-.988.559-1.348.359-.359.837-.558 1.346-.558h.001c.821 0 1.548.523 1.808 1.303l.469 1.407 1.076.538c.457.229.741.688.741 1.2 0 .207-.049.415-.142.6l-.906 1.813.184.918c-.006.007-.011.015-.018.023l.027.023.059.294-4.162.694zm7.959-3.144c0 .995-.131 1.976-.371 2.928-.317-.622-.823-1.142-1.477-1.469l-.335-.167-.207-.621c-.532-1.597-2.02-2.671-3.704-2.671 0 0 0 0-.001 0-1.043 0-2.023.406-2.762 1.144-.248.248-.443.531-.613.827l-1.53-.638v-11.282c6.15.511 11 5.67 11 11.949zm-13-11.949v11.469l-8.959 7.167c-1.288-1.913-2.041-4.213-2.041-6.687 0-6.279 4.85-11.438 11-11.949zm1 23.949c-3.425 0-6.512-1.45-8.7-3.759l8.862-7.09 1.838.766v.762c0 .272.023.545.071.813l1.41 7.988c-1.126.339-2.294.52-3.481.52zm40 26h-4v-8.343c0-.79.32-1.563.879-2.121l.828-.829-1.414-1.414-.828.829c-.944.944-1.465 2.2-1.465 3.535v8.343h-16v-8.442l-8.294-7.541c-1.794-1.63-3.013-3.841-3.434-6.228l-.884-5.007 4.207-.701 1.137 5.687c.23 1.151.862 2.189 1.779 2.923l4.138 3.309h4.675l.91 6.824 4.766-3.574 4.764 3.573.878-6.523 3.149.35c1.603.177 2.989 1.145 3.71 2.587.327.653.5 1.385.5 2.116v10.647z"/><path d="m47 53h2v2h-2z"/><path d="m47 57h2v2h-2z"/><circle cx="42" cy="30" r="1"/><path d="m7 41h14v2h-14z"/><path d="m7 45h14v2h-14z"/><path d="m19 49h2v2h-2z"/><path d="m7 49h10v2h-10z"/></g></g></svg>