<svg height="512" viewBox="0 0 512 512" width="512" xmlns="http://www.w3.org/2000/svg"><g id="filled_outline" data-name="filled outline"><path d="m48 376h416v56h-416z" fill="#e08122"/><path d="m48 136h416v304h-416z" fill="#fd9226"/><path d="m472 456v-32h-432v32h-16v32h464v-32z" fill="#d18d28"/><path d="m40 136h432v104h-432z" fill="#e08122"/><path d="m40 136h432v24h-432z" fill="#c9741f"/><path d="m40 136h32v288h-32z" fill="#d9d9d9"/><path d="m440 136h32v288h-32z" fill="#d9d9d9"/><path d="m40 440h432v16h-432z" fill="#b97d23"/><path d="m24 472h464v16h-464z" fill="#b97d23"/><path d="m24 104h464v32h-464z" fill="#d18d28"/><path d="m352 176h-62.111a75.779 75.779 0 0 0 -33.889 8 75.779 75.779 0 0 0 -33.889-8h-62.111v-128h57.373a54.626 54.626 0 0 1 38.627 16 54.626 54.626 0 0 1 38.627-16h57.373z" fill="#fbb540"/><path d="m256 64v120a75.892 75.892 0 0 0 -33.89-8h-62.11v-128h57.37a54.641 54.641 0 0 1 38.63 16z" fill="#ea9d2d"/><path d="m296 48v96a24 24 0 0 1 24 24v-120a24 24 0 0 0 -24-24z" fill="#fbedbf"/><path d="m296 312v80h-80v-80a40 40 0 0 1 80 0z" fill="#8f563b"/><path d="m296 312v80h-40v-120a40.015 40.015 0 0 1 40 40z" fill="#5b3726"/><rect fill="#ebebeb" height="64" rx="6" width="64" x="112" y="280"/><rect fill="#ebebeb" height="64" rx="6" width="64" x="336" y="280"/><path d="m152 272h-16v32h-32v16h32v32h16v-32h32v-16h-32z" fill="#fd9226"/><path d="m408 304h-32v-32h-16v32h-32v16h32v32h16v-32h32z" fill="#fd9226"/><path d="m200 456h112v32h-112z" fill="#d9d9d9"/><path d="m200 472h112v16h-112z" fill="#cdcdcd"/><path d="m208 424h96v32h-96z" fill="#d9d9d9"/><path d="m208 440h96v16h-96z" fill="#cdcdcd"/><path d="m216 392h80v32h-80z" fill="#d9d9d9"/><path d="m216 408h80v16h-80z" fill="#cdcdcd"/><g fill="#d9d9d9"><path d="m136 208h-32v-16a16 16 0 0 1 16-16 16 16 0 0 1 16 16z"/><path d="m408 208h-32v-16a16 16 0 0 1 16-16 16 16 0 0 1 16 16z"/><path d="m344 208h-32v-16a16 16 0 0 1 16-16 16 16 0 0 1 16 16z"/><path d="m200 208h-32v-16a16 16 0 0 1 16-16 16 16 0 0 1 16 16z"/></g><path d="m189.088 226.912a8 8 0 0 1 -5.656-13.657l16.97-16.971a8 8 0 0 1 11.314 11.316l-16.971 16.97a7.975 7.975 0 0 1 -5.657 2.342z" fill="#3775a4"/><path d="m153.289 210.711h32a0 0 0 0 1 0 0v40a16 16 0 0 1 -16 16 16 16 0 0 1 -16-16v-40a0 0 0 0 1 0 0z" fill="#8f563b" transform="matrix(.707 .707 -.707 .707 218.378 -49.789)"/><path d="m240 224a56 56 0 0 1 -39.6-95.6 56 56 0 1 1 39.6 95.6zm0-96a39.738 39.738 0 0 0 -28.284 11.716 40 40 0 1 0 28.284-11.716z" fill="#428dc5"/><path d="m440 400h32v24h-32z" fill="#cdcdcd"/><path d="m40 400h32v24h-32z" fill="#cdcdcd"/><path d="m440 136h32v24h-32z" fill="#cdcdcd"/><path d="m40 136h32v24h-32z" fill="#cdcdcd"/><path d="m170 272h-52a14.015 14.015 0 0 0 -14 14v52a14.015 14.015 0 0 0 14 14h52a14.015 14.015 0 0 0 14-14v-52a14.015 14.015 0 0 0 -14-14zm-2 32h-16v-16h16zm-32-16v16h-16v-16zm-16 32h16v16h-16zm32 16v-16h16v16z"/><path d="m342 352h52a14.015 14.015 0 0 0 14-14v-52a14.015 14.015 0 0 0 -14-14h-52a14.015 14.015 0 0 0 -14 14v52a14.015 14.015 0 0 0 14 14zm2-32h16v16h-16zm32 16v-16h16v16zm16-32h-16v-16h16zm-32-16v16h-16v-16z"/><path d="m480 144h8a8 8 0 0 0 8-8v-32a8 8 0 0 0 -8-8h-128v-48a8 8 0 0 0 -8-8h-25.013a32.056 32.056 0 0 0 -30.987-24 8 8 0 0 0 -8 8v16.358a62.625 62.625 0 0 0 -32.011 12.976 63.141 63.141 0 0 0 -38.619-13.334h-57.37a8 8 0 0 0 -8 8v48h-128a8 8 0 0 0 -8 8v32a8 8 0 0 0 8 8h8v304h-8a8 8 0 0 0 -8 8v32a8 8 0 0 0 8 8h464a8 8 0 0 0 8-8v-32a8 8 0 0 0 -8-8h-8zm-16 272h-16v-272h16zm-160 0v-32h128v32zm-8 32h-80v-16h80zm-144-304v32a8 8 0 0 0 8 8h1.376a23.885 23.885 0 0 0 -1.376 8v16a7.958 7.958 0 0 0 1.46 4.6l-17.627 17.627c-.57.57-1.1 1.163-1.6 1.774h-62.233v-88.001zm59.716-4.284a39.738 39.738 0 0 1 28.284-11.716 40.318 40.318 0 0 1 8 .8v43.318c-2.187-.71-4.4-1.344-6.631-1.87a83.388 83.388 0 0 0 -19.259-2.248h-22.11a39.738 39.738 0 0 1 11.716-28.284zm84.284 12.284a16.019 16.019 0 0 1 16 16h-16a56.193 56.193 0 0 0 -2.421-16.375 8 8 0 0 0 2.421.375zm56 32a8 8 0 0 0 8-8v-32h72v88h-223.8a7.986 7.986 0 0 0 -2.136-7.431l-5.657-5.657 5.251-5.251.008-.008.8-.8a56.04 56.04 0 0 0 87.22-28.853h11.69a23.885 23.885 0 0 0 -1.376 8v16a8 8 0 0 0 8 8h32a8 8 0 0 0 8-8v-16a23.885 23.885 0 0 0 -1.376-8zm80 184h-128v-56a48 48 0 0 0 -96 0v56h-128v-120h56.853a23.982 23.982 0 0 0 40.921 16.167l16.167-16.167h238.059zm-144-56v72h-24v-102.987a32.056 32.056 0 0 1 24 30.987zm-40 72h-24v-72a32.056 32.056 0 0 1 24-30.987zm-24 16h64v16h-64zm-46.226-181.088 11.314 11.314-22.627 22.627a8 8 0 0 1 -11.314-11.314zm74.648-27.757a8 8 0 0 0 7.156 0 67.4 67.4 0 0 1 16.433-5.712 40.027 40.027 0 0 1 -72.683-1.443h18.782a67.863 67.863 0 0 1 30.312 7.155zm83.578.845v8h-16v-8a8 8 0 0 1 16 0zm-56.015-23.4a82.651 82.651 0 0 0 -15.985 3.5v-36.1a40.473 40.473 0 0 1 4.284 3.718 39.738 39.738 0 0 1 11.716 28.282c0 .2-.012.4-.015.6zm-93.566 15.77a55.33 55.33 0 0 0 5.581 12.51v3.12h-11.742a8.024 8.024 0 0 0 -4.258-.195v-7.805a8.012 8.012 0 0 1 10.419-7.63zm-106.419 199.63h128v32h-128zm400-272v16h-120v-16zm-136 56h-16v-112h16zm-40-133.853a16.01 16.01 0 0 1 8 13.853v92.294a31.852 31.852 0 0 0 -8-3.282zm-27.219 25.405a46.49 46.49 0 0 1 11.219-3.077v82.645a56.539 56.539 0 0 0 -24-21.747v-49.887a46.41 46.41 0 0 1 12.781-7.934zm-108.781-3.552h49.37a46.985 46.985 0 0 1 30.63 11.491v45.079a56.907 56.907 0 0 0 -8-.57 56 56 0 0 0 -56 56h-16zm-136 56h120v16h-120zm32 32v272h-16v-272zm-16 288h152v16h-152zm-16 32h160v16h-160zm176 16v-16h96v16zm272 0h-160v-16h160zm-168-32v-16h152v16z"/><path d="m104 216h32a8 8 0 0 0 8-8v-16a24 24 0 0 0 -48 0v16a8 8 0 0 0 8 8zm8-24a8 8 0 0 1 16 0v8h-16z"/><path d="m376 216h32a8 8 0 0 0 8-8v-16a24 24 0 0 0 -48 0v16a8 8 0 0 0 8 8zm8-24a8 8 0 0 1 16 0v8h-16z"/></g></svg>